<?xml version="1.0" encoding="UTF-8" standalone="no"?>
<!-- Created with Inkscape (http://www.inkscape.org/) -->

<svg
   version="1.1"
   id="svg1"
   width="350"
   height="350"
   viewBox="0 0 350 350"
   xmlns="http://www.w3.org/2000/svg"
   xmlns:svg="http://www.w3.org/2000/svg">
  <defs
     id="defs3" />
  <g
     id="g3">
    <g
       transform="translate(-23.639046,22.977304)"
       id="g1"
       style="fill:#000000;fill-opacity:1">
      <path
         id="path13"
         d="m 0,0 c 0,-23.316 -18.901,-42.217 -42.217,-42.217 -23.316,0 -42.218,18.901 -42.218,42.217 0,23.316 18.902,42.217 42.218,42.217 C -18.901,42.217 0,23.316 0,0"
         style="stroke:none"
         transform="matrix(1.3333333,0,0,-1.3333333,324.64695,149.0913)"
         clip-path="url(#clipPath14)" />
      <path
         id="path15"
         d="m 0,0 c 0,-17.083 -13.848,-30.931 -30.93,-30.931 -17.083,0 -30.931,13.848 -30.931,30.931 0,17.083 13.848,30.93 30.931,30.93 C -13.848,30.93 0,17.083 0,0"
         style="stroke:none"
         transform="matrix(1.3333333,0,0,-1.3333333,153.96335,105.0861)"
         clip-path="url(#clipPath16)" />
      <path
         d="m -73.100981,73.101706 c -8.607474,0 -16.862279,-1.499735 -24.531739,-4.231933 0.418,-2.244998 0.645996,-4.55739 0.645996,-6.921387 0,-20.812979 -16.931256,-37.7417 -37.740236,-37.7417 -2.435,0 -4.81407,0.241082 -7.12207,0.684082 -2.81361,-7.769615 -4.35352,-16.1498306 -4.35352,-24.89062596875 0,-40.37192003125 32.72865,-73.10156403125 73.101569,-73.10156403125 34.36421,0 63.1752783,23.719146 70.9936544,55.674318 -4.98799,-1.714998 -10.3320304,-2.658692 -15.8950204,-2.658692 -27.034946,0 -49.026856,21.9903752 -49.026856,49.028322 0,16.129554 7.828408,30.458874 19.88086,39.399903 -8.067199,3.065403 -16.810225,4.759277 -25.952638,4.759277 z M -141.84903,24.890768 c 0.0961,0.265388 0.19816,0.527089 0.29736,0.791015 -0.099,-0.263831 -0.2013,-0.525745 -0.29736,-0.791015 z m 44.21631,43.979005 c -0.479991,-0.170994 -0.955846,-0.34959 -1.431152,-0.530274 0.474967,0.180928 0.951339,0.359316 1.431152,0.530274 z"
         style="stroke:none"
         transform="matrix(1.3333333,0,0,-1.3333333,292.36055,187.68183)"
         id="path1" />
      <path
         id="path5"
         d="m 0,0 c 0,-6.779 -5.495,-12.274 -12.274,-12.274 -6.779,0 -12.275,5.495 -12.275,12.274 0,6.778 5.496,12.274 12.275,12.274 C -5.495,12.274 0,6.778 0,0"
         style="stroke:none"
         transform="matrix(1.3333333,0,0,-1.3333333,80.931484,222.24823)"
         clip-path="url(#clipPath6)" />
      <path
         id="path7"
         d="m 0,0 c 0,-12.97 -10.514,-23.485 -23.485,-23.485 -12.97,0 -23.485,10.515 -23.485,23.485 0,12.971 10.515,23.485 23.485,23.485 C -10.514,23.485 0,12.971 0,0"
         style="stroke:none"
         transform="matrix(1.3333333,0,0,-1.3333333,253.44908,37.551039)"
         clip-path="url(#clipPath8)" />
      <path
         id="path9"
         d="m 0,0 c 0,-6.183 -5.013,-11.195 -11.195,-11.195 -6.183,0 -11.195,5.012 -11.195,11.195 0,6.183 5.012,11.194 11.195,11.194 C -5.013,11.194 0,6.183 0,0"
         style="stroke:none"
         transform="matrix(1.3333333,0,0,-1.3333333,365.18602,180.09717)"
         clip-path="url(#clipPath10)" />
    </g>
  </g>
</svg>
